# Blender v3.0.1 OBJ File: ''
# www.blender.org
mtllib Gold_Star.mtl
o Gold_Star
v 0.000000 -0.760085 2.383382
v 0.000000 -5.536607 4.023011
v 0.000000 -5.549848 4.004787
v 0.000000 -2.514441 0.031289
v 0.000000 -0.819594 2.364046
v 0.000000 2.019017 1.441727
v 0.000000 2.102369 6.491149
v 0.000000 2.080946 6.498109
v 0.000000 1.982238 1.492348
v 0.000000 1.982238 -1.492342
v 0.000000 6.810283 -0.011257
v 0.000000 6.810283 0.011269
v 0.000000 2.019016 -1.441720
v 0.000000 -0.819593 -2.364042
v 0.000000 2.080946 -6.498102
v 0.000000 2.102369 -6.491141
v 0.000000 -0.760084 -2.383377
v 0.000000 -5.549853 -4.004786
v 0.000000 -5.536613 -4.023010
v 0.000000 -2.514441 -0.031283
v -3.229001 -0.088335 0.093358
v -0.006421 -15.875516 11.534718
v -0.016491 -2.234582 6.718824
v -3.229001 -0.128917 0.037502
v -0.016491 -7.093337 0.031319
v -0.006421 -15.888810 11.516418
v -3.229001 0.048655 0.095198
v -0.006420 6.051529 18.645275
v -0.016490 5.686623 4.183782
v -3.229001 -0.017008 0.116534
v -0.016491 -2.175013 6.738180
v -0.006420 6.030018 18.652264
v -3.229001 0.092738 -0.034519
v -0.006419 19.589901 -0.011301
v -0.016490 5.723440 -4.133101
v -3.229001 0.092738 0.034523
v -0.016490 5.723439 4.133110
v -0.006419 19.589901 0.011317
v -3.229001 -0.017008 -0.116529
v -0.006420 6.030025 -18.652254
v -0.016491 -2.175009 -6.738176
v -3.229001 0.048656 -0.095194
v -0.016490 5.686624 -4.183774
v -0.006420 6.051538 -18.645266
v -3.229001 -0.128917 -0.037497
v -0.006421 -15.888804 -11.516421
v -0.016491 -7.093337 -0.031317
v -3.229001 -0.088335 -0.093353
v -0.016491 -2.234579 -6.718820
v -0.006421 -15.875510 -11.534720
v 0.000000 -2.233433 6.715391
v -0.000001 -15.875117 11.534370
v 0.000000 6.029898 18.651749
v 0.000000 -2.173924 6.734727
v 0.000000 5.683712 4.181628
v 0.000000 6.051321 18.644789
v 0.000001 19.589375 0.011271
v 0.000000 5.720492 4.131006
v 0.000000 5.720493 -4.130999
v 0.000001 19.589375 -0.011255
v 0.000000 6.051331 -18.644779
v 0.000000 5.683713 -4.181621
v 0.000000 -2.173920 -6.734723
v 0.000000 6.029907 -18.651739
v -0.000001 -15.875112 -11.534373
v 0.000000 -2.233430 -6.715387
v 0.000000 -7.089717 -0.031285
v -0.000001 -15.888351 -11.516150
v -0.000001 -15.888357 11.516147
v 0.000000 -7.089717 0.031287
v -3.229001 -0.052323 -0.012610
v -3.229001 0.016145 0.009636
vt 0.238864 0.261810
vt 0.364672 0.489562
vt 0.330061 0.304042
vt 0.237861 0.262595
vt 0.225360 0.362246
vt 0.364528 0.489590
vt 0.239512 0.259200
vt 0.494775 0.210448
vt 0.307819 0.185671
vt 0.239437 0.260555
vt 0.330388 0.303225
vt 0.494783 0.210653
vt 0.237228 0.258199
vt 0.269378 0.000155
vt 0.188443 0.170604
vt 0.238299 0.258375
vt 0.307078 0.185013
vt 0.269610 0.000202
vt 0.235574 0.260075
vt 0.000193 0.149691
vt 0.136367 0.279235
vt 0.236041 0.259074
vt 0.187594 0.171025
vt 0.000250 0.149558
vt 0.236488 0.262256
vt 0.058682 0.452058
vt 0.224595 0.362071
vt 0.235517 0.261559
vt 0.136787 0.279885
vt 0.058545 0.451922
vt 0.282001 0.670816
vt 0.265258 0.733350
vt 0.320212 0.711213
vt 0.370562 0.530800
vt 0.265783 0.734007
vt 0.321835 0.766334
vt 0.482489 0.807044
vt 0.320843 0.711827
vt 0.321905 0.767456
vt 0.257258 0.770399
vt 0.295295 0.815821
vt 0.482437 0.808724
vt 0.256796 0.771101
vt 0.243043 0.834504
vt 0.253678 0.999765
vt 0.294904 0.816613
vt 0.242233 0.834494
vt 0.219551 0.774238
vt 0.188105 0.824448
vt 0.252057 0.999418
vt 0.218741 0.774016
vt 0.154431 0.780931
vt 0.000305 0.842130
vt 0.187232 0.824322
vt 0.153945 0.780313
vt 0.204247 0.739563
vt 0.146777 0.725172
vt 0.000000 0.841431
vt 0.204208 0.738723
vt 0.177596 0.679449
vt 0.071704 0.552077
vt 0.146627 0.724303
vt 0.178301 0.679046
vt 0.232496 0.714292
vt 0.228423 0.655188
vt 0.072749 0.551467
vt 0.233282 0.713996
vt 0.280707 0.670009
vt 0.369629 0.530060
vt 0.229204 0.654777
vt 0.237189 0.260962
vt 0.237655 0.259784
vt 0.330403 0.304171
vt 0.364790 0.489691
vt 0.364529 0.489721
vt 0.225250 0.362658
vt 0.308119 0.185390
vt 0.494941 0.210336
vt 0.494976 0.210673
vt 0.330707 0.303368
vt 0.188280 0.170359
vt 0.269328 0.000000
vt 0.269703 0.000047
vt 0.307394 0.184766
vt 0.136151 0.279402
vt 0.000000 0.149699
vt 0.000090 0.149418
vt 0.187478 0.170782
vt 0.224534 0.362442
vt 0.058656 0.452199
vt 0.058382 0.451977
vt 0.136463 0.279952
vn -0.8650 0.1665 0.4733
vn -0.8650 -0.3987 -0.3046
vn -0.8650 0.5016 -0.0121
vn -0.8650 -0.4129 0.2851
vn -0.8650 0.1435 -0.4808
vn -0.8650 0.1435 0.4808
vn -0.8650 -0.4129 -0.2851
vn -0.8650 0.5016 0.0121
vn -0.8650 -0.3987 0.3046
vn -0.8650 0.1665 -0.4733
vn 1.0000 -0.0000 0.0000
vn -1.0000 0.0000 0.0000
vn -0.9081 -0.4189 0.0000
vn -0.9866 -0.1319 -0.0959
vn -0.9081 -0.1294 -0.3984
vn -0.9866 0.0504 -0.1551
vn -0.9081 0.3389 -0.2462
vn -0.9866 0.1631 0.0000
vn -0.9081 0.3389 0.2462
vn -0.9866 0.0504 0.1551
vn -0.9081 -0.1294 0.3984
vn -0.9866 -0.1319 0.0958
vn 0.1319 0.3301 0.9347
vn 0.1319 -0.7869 -0.6028
vn 0.1320 0.9909 -0.0251
vn 0.1319 -0.8165 0.5621
vn 0.1319 0.2823 -0.9502
vn 0.1319 0.2823 0.9502
vn 0.1319 -0.8165 -0.5621
vn 0.1320 0.9909 0.0251
vn 0.1319 -0.7869 0.6028
vn 0.1319 0.3301 -0.9347
vn 0.2144 -0.9767 0.0000
vn 0.0817 -0.8063 -0.5858
vn 0.2144 -0.3018 -0.9289
vn 0.0818 0.3079 -0.9479
vn 0.2144 0.7902 -0.5741
vn 0.0817 0.9967 0.0000
vn 0.2144 0.7902 0.5741
vn 0.0818 0.3079 0.9479
vn 0.2144 -0.3018 0.9289
vn 0.0817 -0.8063 0.5858
usemtl wire_134059008
s off
f 21/1/1 22/2/1 23/3/1
f 24/4/2 25/5/2 26/6/2
f 27/7/3 28/8/3 29/9/3
f 30/10/4 31/11/4 32/12/4
f 33/13/5 34/14/5 35/15/5
f 36/16/6 37/17/6 38/18/6
f 39/19/7 40/20/7 41/21/7
f 42/22/8 43/23/8 44/24/8
f 45/25/9 46/26/9 47/27/9
f 48/28/10 49/29/10 50/30/10
f 2/31/11 5/32/11 51/33/11 52/34/11
f 1/35/11 8/36/11 53/37/11 54/38/11
f 7/39/11 9/40/11 55/41/11 56/42/11
f 6/43/11 12/44/11 57/45/11 58/46/11
f 11/47/11 13/48/11 59/49/11 60/50/11
f 10/51/11 16/52/11 61/53/11 62/54/11
f 15/55/11 17/56/11 63/57/11 64/58/11
f 14/59/11 19/60/11 65/61/11 66/62/11
f 18/63/11 20/64/11 67/65/11 68/66/11
f 4/67/11 3/68/11 69/69/11 70/70/11
f 39/19/12 71/71/12 72/72/12 42/22/12
f 24/4/13 45/25/13 47/27/13 25/5/13
f 45/25/14 48/28/14 50/30/14 46/26/14
f 48/28/15 39/19/15 41/21/15 49/29/15
f 39/19/16 42/22/16 44/24/16 40/20/16
f 42/22/17 33/13/17 35/15/17 43/23/17
f 33/13/18 36/16/18 38/18/18 34/14/18
f 36/16/19 27/7/19 29/9/19 37/17/19
f 27/7/20 30/10/20 32/12/20 28/8/20
f 30/10/21 21/1/21 23/3/21 31/11/21
f 21/1/22 24/4/22 26/6/22 22/2/22
f 3/68/11 2/31/11 52/34/11 69/69/11
f 5/32/11 1/35/11 54/38/11 51/33/11
f 8/36/11 7/39/11 56/42/11 53/37/11
f 9/40/11 6/43/11 58/46/11 55/41/11
f 12/44/11 11/47/11 60/50/11 57/45/11
f 13/48/11 10/51/11 62/54/11 59/49/11
f 16/52/11 15/55/11 64/58/11 61/53/11
f 17/56/11 14/59/11 66/62/11 63/57/11
f 19/60/11 18/63/11 68/66/11 65/61/11
f 20/64/11 4/67/11 70/70/11 67/65/11
f 42/22/12 72/72/12 36/16/12 33/13/12
f 45/25/12 71/71/12 39/19/12 48/28/12
f 36/16/12 72/72/12 30/10/12 27/7/12
f 72/72/12 71/71/12 21/1/12 30/10/12
f 45/25/12 24/4/12 21/1/12 71/71/12
f 51/73/23 23/3/23 22/2/23 52/74/23
f 69/75/24 26/6/24 25/5/24 70/76/24
f 55/77/25 29/9/25 28/8/25 56/78/25
f 53/79/26 32/12/26 31/11/26 54/80/26
f 59/81/27 35/15/27 34/14/27 60/82/27
f 57/83/28 38/18/28 37/17/28 58/84/28
f 63/85/29 41/21/29 40/20/29 64/86/29
f 61/87/30 44/24/30 43/23/30 62/88/30
f 67/89/31 47/27/31 46/26/31 68/90/31
f 65/91/32 50/30/32 49/29/32 66/92/32
f 47/27/33 67/89/33 70/76/33 25/5/33
f 68/90/34 46/26/34 50/30/34 65/91/34
f 66/92/35 49/29/35 41/21/35 63/85/35
f 64/86/36 40/20/36 44/24/36 61/87/36
f 62/88/37 43/23/37 35/15/37 59/81/37
f 60/82/38 34/14/38 38/18/38 57/83/38
f 58/84/39 37/17/39 29/9/39 55/77/39
f 56/78/40 28/8/40 32/12/40 53/79/40
f 54/80/41 31/11/41 23/3/41 51/73/41
f 26/6/42 69/75/42 52/74/42 22/2/42
s 1
f 1/35/11 2/31/11 3/68/11 4/67/11
f 1/35/11 5/32/12 2/31/11
f 6/43/11 7/39/11 8/36/11 1/35/11
f 6/43/11 9/40/12 7/39/11
f 10/51/11 11/47/11 12/44/11 6/43/11
f 10/51/11 13/48/12 11/47/11
f 14/59/11 15/55/11 16/52/11 10/51/11
f 14/59/11 17/56/12 15/55/11
f 1/35/11 14/59/11 10/51/11 6/43/11
f 18/63/11 14/59/11 1/35/11 4/67/11
f 18/63/11 19/60/11 14/59/11
f 18/63/11 4/67/11 20/64/12
